<svg xmlns="http://www.w3.org/2000/svg" width="32" height="32" viewBox="0 0 24 24"><path fill="#ffffff" d="M11.8 13H15q.425 0 .713-.288T16 12q0-.425-.288-.713T15 11h-3.2l.9-.9q.275-.275.275-.7t-.275-.7q-.275-.275-.7-.275t-.7.275l-2.6 2.6q-.3.3-.3.7t.3.7l2.6 2.6q.275.275.7.275t.7-.275q.275-.275.275-.7t-.275-.7l-.9-.9Zm.2 9q-2.075 0-3.9-.788t-3.175-2.137q-1.35-1.35-2.137-3.175T2 12q0-2.075.788-3.9t2.137-3.175q1.35-1.35 3.175-2.137T12 2q2.075 0 3.9.788t3.175 2.137q1.35 1.35 2.138 3.175T22 12q0 2.075-.788 3.9t-2.137 3.175q-1.35 1.35-3.175 2.138T12 22Zm0-2q3.35 0 5.675-2.325T20 12q0-3.35-2.325-5.675T12 4Q8.65 4 6.325 6.325T4 12q0 3.35 2.325 5.675T12 20Zm0-8Z"/></svg>