<svg width="39" height="39" viewBox="0 0 39 39" fill="none" xmlns="http://www.w3.org/2000/svg">
<path d="M13 9.34375C12.3338 9.34375 11.7812 8.79125 11.7812 8.125V3.25C11.7812 2.58375 12.3338 2.03125 13 2.03125C13.6662 2.03125 14.2188 2.58375 14.2188 3.25V8.125C14.2188 8.79125 13.6662 9.34375 13 9.34375Z" fill="#292D32"/>
<path d="M26 9.34375C25.3338 9.34375 24.7812 8.79125 24.7812 8.125V3.25C24.7812 2.58375 25.3338 2.03125 26 2.03125C26.6662 2.03125 27.2188 2.58375 27.2188 3.25V8.125C27.2188 8.79125 26.6662 9.34375 26 9.34375Z" fill="#292D32"/>
<path d="M13.8125 23.5625C13.6013 23.5625 13.39 23.5138 13.195 23.4325C12.9837 23.3513 12.8213 23.2375 12.6588 23.0912C12.3663 22.7825 12.1875 22.3763 12.1875 21.9375C12.1875 21.7263 12.2363 21.515 12.3175 21.32C12.3988 21.125 12.5125 20.9463 12.6588 20.7838C12.8213 20.6375 12.9837 20.5237 13.195 20.4425C13.78 20.1987 14.5112 20.3288 14.9662 20.7838C15.2587 21.0925 15.4375 21.515 15.4375 21.9375C15.4375 22.035 15.4212 22.1488 15.405 22.2625C15.3887 22.36 15.3562 22.4575 15.3075 22.555C15.275 22.6525 15.2263 22.75 15.1613 22.8475C15.1125 22.9288 15.0312 23.01 14.9662 23.0912C14.6575 23.3837 14.235 23.5625 13.8125 23.5625Z" fill="#292D32"/>
<path d="M19.5 23.5625C19.2888 23.5625 19.0775 23.5138 18.8825 23.4325C18.6712 23.3513 18.5088 23.2375 18.3463 23.0912C18.0538 22.7825 17.875 22.3762 17.875 21.9375C17.875 21.7262 17.9238 21.515 18.005 21.32C18.0863 21.125 18.2 20.9463 18.3463 20.7838C18.5088 20.6375 18.6712 20.5237 18.8825 20.4425C19.4675 20.1825 20.1987 20.3288 20.6537 20.7838C20.9462 21.0925 21.125 21.515 21.125 21.9375C21.125 22.035 21.1087 22.1488 21.0925 22.2625C21.0762 22.36 21.0437 22.4575 20.995 22.555C20.9625 22.6525 20.9138 22.75 20.8488 22.8475C20.8 22.9287 20.7187 23.01 20.6537 23.0912C20.345 23.3837 19.9225 23.5625 19.5 23.5625Z" fill="#292D32"/>
<path d="M25.1875 23.5625C24.9763 23.5625 24.765 23.5138 24.57 23.4325C24.3587 23.3513 24.1963 23.2375 24.0338 23.0912C23.9688 23.01 23.9037 22.9287 23.8387 22.8475C23.7737 22.75 23.725 22.6525 23.6925 22.555C23.6438 22.4575 23.6113 22.36 23.595 22.2625C23.5788 22.1488 23.5625 22.035 23.5625 21.9375C23.5625 21.515 23.7413 21.0925 24.0338 20.7838C24.1963 20.6375 24.3587 20.5237 24.57 20.4425C25.1712 20.1825 25.8862 20.3288 26.3412 20.7838C26.6337 21.0925 26.8125 21.515 26.8125 21.9375C26.8125 22.035 26.7962 22.1488 26.78 22.2625C26.7637 22.36 26.7312 22.4575 26.6825 22.555C26.65 22.6525 26.6013 22.75 26.5363 22.8475C26.4875 22.9287 26.4062 23.01 26.3412 23.0912C26.0325 23.3837 25.61 23.5625 25.1875 23.5625Z" fill="#292D32"/>
<path d="M13.8125 29.25C13.6013 29.25 13.39 29.2013 13.195 29.12C13 29.0388 12.8213 28.925 12.6588 28.7787C12.3663 28.47 12.1875 28.0475 12.1875 27.625C12.1875 27.4138 12.2363 27.2025 12.3175 27.0075C12.3988 26.7962 12.5125 26.6175 12.6588 26.4713C13.26 25.87 14.365 25.87 14.9662 26.4713C15.2587 26.78 15.4375 27.2025 15.4375 27.625C15.4375 28.0475 15.2587 28.47 14.9662 28.7787C14.6575 29.0712 14.235 29.25 13.8125 29.25Z" fill="#292D32"/>
<path d="M19.5 29.25C19.0775 29.25 18.655 29.0712 18.3463 28.7787C18.0538 28.47 17.875 28.0475 17.875 27.625C17.875 27.4138 17.9238 27.2025 18.005 27.0075C18.0863 26.7962 18.2 26.6175 18.3463 26.4713C18.9475 25.87 20.0525 25.87 20.6537 26.4713C20.8 26.6175 20.9137 26.7962 20.995 27.0075C21.0762 27.2025 21.125 27.4138 21.125 27.625C21.125 28.0475 20.9462 28.47 20.6537 28.7787C20.345 29.0712 19.9225 29.25 19.5 29.25Z" fill="#292D32"/>
<path d="M25.1875 29.2501C24.765 29.2501 24.3425 29.0713 24.0338 28.7788C23.8875 28.6325 23.7738 28.4538 23.6925 28.2426C23.6113 28.0476 23.5625 27.8363 23.5625 27.6251C23.5625 27.4138 23.6113 27.2025 23.6925 27.0075C23.7738 26.7963 23.8875 26.6176 24.0338 26.4713C24.4075 26.0976 24.9762 25.9188 25.4962 26.0325C25.61 26.0488 25.7075 26.0813 25.805 26.13C25.9025 26.1625 26 26.2113 26.0975 26.2763C26.1788 26.3251 26.26 26.4063 26.3412 26.4713C26.6337 26.7801 26.8125 27.2026 26.8125 27.6251C26.8125 28.0476 26.6337 28.47 26.3412 28.7788C26.0325 29.0713 25.61 29.2501 25.1875 29.2501Z" fill="#292D32"/>
<path d="M33.3125 15.9899H5.6875C5.02125 15.9899 4.46875 15.4374 4.46875 14.7712C4.46875 14.1049 5.02125 13.5524 5.6875 13.5524H33.3125C33.9788 13.5524 34.5312 14.1049 34.5312 14.7712C34.5312 15.4374 33.9788 15.9899 33.3125 15.9899Z" fill="#292D32"/>
<path d="M26 36.9688H13C7.06875 36.9688 3.65625 33.5562 3.65625 27.625V13.8125C3.65625 7.88125 7.06875 4.46875 13 4.46875H26C31.9312 4.46875 35.3438 7.88125 35.3438 13.8125V27.625C35.3438 33.5562 31.9312 36.9688 26 36.9688ZM13 6.90625C8.3525 6.90625 6.09375 9.165 6.09375 13.8125V27.625C6.09375 32.2725 8.3525 34.5312 13 34.5312H26C30.6475 34.5312 32.9062 32.2725 32.9062 27.625V13.8125C32.9062 9.165 30.6475 6.90625 26 6.90625H13Z" fill="#292D32"/>
</svg>
