<svg xmlns="http://www.w3.org/2000/svg" width="42" height="42" viewBox="0 0 20 20"><g fill="currentColor" fill-rule="evenodd" clip-rule="evenodd"><path d="M10.346 11.902a3 3 0 0 1-.879-4.15l2.18-3.354a3 3 0 1 1 5.03 3.272l-2.18 3.353a3 3 0 0 1-4.15.88Zm-1.31.193a4.002 4.002 0 0 1-.407-4.889l2.18-3.353a4 4 0 1 1 6.707 4.362l-2.18 3.353a4 4 0 0 1-6.3.527Z"/><path d="M5.398 15.841a3 3 0 0 1-.879-4.15L6.7 8.338a3 3 0 1 1 5.03 3.271l-2.18 3.353a3 3 0 0 1-4.15.88Zm-1.31.194a4.002 4.002 0 0 1-.407-4.89l2.18-3.352a4 4 0 1 1 6.707 4.361l-2.18 3.353a4 4 0 0 1-6.3.528Z"/></g></svg>