<svg width="32" height="32" viewBox="0 0 32 32" fill="none" xmlns="http://www.w3.org/2000/svg">
<path d="M27 6.5H21.5V5C21.5 4.33696 21.2366 3.70107 20.7678 3.23223C20.2989 2.76339 19.663 2.5 19 2.5H13C12.337 2.5 11.7011 2.76339 11.2322 3.23223C10.7634 3.70107 10.5 4.33696 10.5 5V6.5H5C4.86739 6.5 4.74021 6.55268 4.64645 6.64645C4.55268 6.74021 4.5 6.86739 4.5 7C4.5 7.13261 4.55268 7.25979 4.64645 7.35355C4.74021 7.44732 4.86739 7.5 5 7.5H6.5V26C6.5 26.3978 6.65804 26.7794 6.93934 27.0607C7.22064 27.342 7.60218 27.5 8 27.5H24C24.3978 27.5 24.7794 27.342 25.0607 27.0607C25.342 26.7794 25.5 26.3978 25.5 26V7.5H27C27.1326 7.5 27.2598 7.44732 27.3536 7.35355C27.4473 7.25979 27.5 7.13261 27.5 7C27.5 6.86739 27.4473 6.74021 27.3536 6.64645C27.2598 6.55268 27.1326 6.5 27 6.5ZM11.5 5C11.5 4.60218 11.658 4.22064 11.9393 3.93934C12.2206 3.65804 12.6022 3.5 13 3.5H19C19.3978 3.5 19.7794 3.65804 20.0607 3.93934C20.342 4.22064 20.5 4.60218 20.5 5V6.5H11.5V5ZM24.5 26C24.5 26.1326 24.4473 26.2598 24.3536 26.3536C24.2598 26.4473 24.1326 26.5 24 26.5H8C7.86739 26.5 7.74021 26.4473 7.64645 26.3536C7.55268 26.2598 7.5 26.1326 7.5 26V7.5H24.5V26ZM13.5 13V21C13.5 21.1326 13.4473 21.2598 13.3536 21.3536C13.2598 21.4473 13.1326 21.5 13 21.5C12.8674 21.5 12.7402 21.4473 12.6464 21.3536C12.5527 21.2598 12.5 21.1326 12.5 21V13C12.5 12.8674 12.5527 12.7402 12.6464 12.6464C12.7402 12.5527 12.8674 12.5 13 12.5C13.1326 12.5 13.2598 12.5527 13.3536 12.6464C13.4473 12.7402 13.5 12.8674 13.5 13ZM19.5 13V21C19.5 21.1326 19.4473 21.2598 19.3536 21.3536C19.2598 21.4473 19.1326 21.5 19 21.5C18.8674 21.5 18.7402 21.4473 18.6464 21.3536C18.5527 21.2598 18.5 21.1326 18.5 21V13C18.5 12.8674 18.5527 12.7402 18.6464 12.6464C18.7402 12.5527 18.8674 12.5 19 12.5C19.1326 12.5 19.2598 12.5527 19.3536 12.6464C19.4473 12.7402 19.5 12.8674 19.5 13Z" fill="#727272"/>
</svg>
