<svg width="32" height="32" viewBox="0 0 32 32" fill="none" xmlns="http://www.w3.org/2000/svg">
<path d="M28.0613 9.52499L22.475 3.93874C22.3357 3.7989 22.1701 3.68795 21.9877 3.61224C21.8054 3.53653 21.6099 3.49756 21.4125 3.49756C21.2151 3.49756 21.0196 3.53653 20.8373 3.61224C20.655 3.68795 20.4894 3.7989 20.35 3.93874L16.6463 7.64624L4.94001 19.3537C4.80012 19.4925 4.68919 19.6576 4.61366 19.8396C4.53812 20.0216 4.49949 20.2167 4.50001 20.4137V26C4.50001 26.3978 4.65804 26.7793 4.93934 27.0606C5.22065 27.342 5.60218 27.5 6.00001 27.5H11.5863C11.9838 27.5 12.365 27.3422 12.6463 27.0612L28.06 11.6462C28.1998 11.5069 28.3108 11.3413 28.3865 11.159C28.4622 10.9766 28.5012 10.7812 28.5012 10.5837C28.5012 10.3863 28.4622 10.1908 28.3865 10.0085C28.3108 9.82619 28.1998 9.6606 28.06 9.52124L28.0613 9.52499ZM11.9363 26.3537C11.8433 26.4466 11.7176 26.4991 11.5863 26.5H6.00001C5.8674 26.5 5.74022 26.4473 5.64645 26.3535C5.55268 26.2598 5.50001 26.1326 5.50001 26V20.4137C5.49995 20.3481 5.51284 20.283 5.53794 20.2223C5.56303 20.1616 5.59984 20.1065 5.64625 20.06L17 8.70624L23.2925 15L11.9363 26.3537ZM27.3538 10.9387L24 14.2925L17.7075 7.99999L21.06 4.64624C21.1064 4.59975 21.1616 4.56287 21.2223 4.53771C21.283 4.51255 21.348 4.4996 21.4138 4.4996C21.4795 4.4996 21.5445 4.51255 21.6052 4.53771C21.6659 4.56287 21.7211 4.59975 21.7675 4.64624L27.3538 10.2312C27.4002 10.2777 27.4371 10.3328 27.4623 10.3935C27.4874 10.4542 27.5004 10.5193 27.5004 10.585C27.5004 10.6507 27.4874 10.7158 27.4623 10.7765C27.4371 10.8372 27.4002 10.8923 27.3538 10.9387Z" fill="#727272"/>
</svg>
