<svg width="39" height="39" viewBox="0 0 39 39" fill="none" xmlns="http://www.w3.org/2000/svg">
<path d="M19.5 37.0662C18.3787 37.0662 17.3225 36.4975 16.575 35.5063L14.1375 32.2563C14.0887 32.1912 13.8938 32.11 13.8125 32.0938H13C6.22375 32.0938 2.03125 30.2575 2.03125 21.125V13C2.03125 5.8175 5.8175 2.03125 13 2.03125H26C33.1825 2.03125 36.9688 5.8175 36.9688 13V21.125C36.9688 28.3075 33.1825 32.0938 26 32.0938H25.1875C25.0575 32.0938 24.9438 32.1588 24.8625 32.2563L22.425 35.5063C21.6775 36.4975 20.6213 37.0662 19.5 37.0662ZM13 4.46875C7.1825 4.46875 4.46875 7.1825 4.46875 13V21.125C4.46875 28.47 6.9875 29.6562 13 29.6562H13.8125C14.6412 29.6562 15.5837 30.1275 16.0875 30.7938L18.525 34.0438C19.0938 34.7913 19.9062 34.7913 20.475 34.0438L22.9125 30.7938C23.4488 30.0788 24.2938 29.6562 25.1875 29.6562H26C31.8175 29.6562 34.5312 26.9425 34.5312 21.125V13C34.5312 7.1825 31.8175 4.46875 26 4.46875H13Z" fill="#292D32"/>
<path d="M19.5 19.5C18.59 19.5 17.875 18.7687 17.875 17.875C17.875 16.9812 18.6062 16.25 19.5 16.25C20.3937 16.25 21.125 16.9812 21.125 17.875C21.125 18.7687 20.41 19.5 19.5 19.5Z" fill="#292D32"/>
<path d="M26 19.5C25.09 19.5 24.375 18.7687 24.375 17.875C24.375 16.9812 25.1062 16.25 26 16.25C26.8937 16.25 27.625 16.9812 27.625 17.875C27.625 18.7687 26.91 19.5 26 19.5Z" fill="#292D32"/>
<path d="M13 19.5C12.09 19.5 11.375 18.7687 11.375 17.875C11.375 16.9812 12.1062 16.25 13 16.25C13.8937 16.25 14.625 16.9812 14.625 17.875C14.625 18.7687 13.91 19.5 13 19.5Z" fill="#292D32"/>
</svg>
