<svg width="17" height="17" viewBox="0 0 17 17" fill="none" xmlns="http://www.w3.org/2000/svg">
<path d="M12.75 5.07166C12.7075 5.06458 12.6579 5.06458 12.6154 5.07166C11.6379 5.03624 10.8588 4.23582 10.8588 3.24416C10.8588 2.23124 11.6733 1.41666 12.6863 1.41666C13.6992 1.41666 14.5138 2.23832 14.5138 3.24416C14.5067 4.23582 13.7275 5.03624 12.75 5.07166Z" stroke="#292D32" stroke-width="1.5" stroke-linecap="round" stroke-linejoin="round"/>
<path d="M12.0204 10.2283C12.9908 10.3912 14.0604 10.2212 14.8112 9.71831C15.81 9.05248 15.81 7.96165 14.8112 7.29582C14.0533 6.7929 12.9696 6.62289 11.9991 6.79289" stroke="#292D32" stroke-width="1.5" stroke-linecap="round" stroke-linejoin="round"/>
<path d="M4.22872 5.07166C4.27122 5.06458 4.3208 5.06458 4.3633 5.07166C5.3408 5.03624 6.11997 4.23582 6.11997 3.24416C6.11997 2.23124 5.30538 1.41666 4.29247 1.41666C3.27955 1.41666 2.46497 2.23832 2.46497 3.24416C2.47205 4.23582 3.25122 5.03624 4.22872 5.07166Z" stroke="#292D32" stroke-width="1.5" stroke-linecap="round" stroke-linejoin="round"/>
<path d="M4.95835 10.2283C3.98794 10.3912 2.91835 10.2212 2.16752 9.71831C1.16877 9.05248 1.16877 7.96165 2.16752 7.29582C2.92544 6.7929 4.00918 6.62289 4.9796 6.79289" stroke="#292D32" stroke-width="1.5" stroke-linecap="round" stroke-linejoin="round"/>
<path d="M8.50001 10.3629C8.45751 10.3558 8.40793 10.3558 8.36543 10.3629C7.38793 10.3275 6.60876 9.52708 6.60876 8.53542C6.60876 7.5225 7.42335 6.70792 8.43626 6.70792C9.44918 6.70792 10.2638 7.52958 10.2638 8.53542C10.2567 9.52708 9.47751 10.3346 8.50001 10.3629Z" stroke="#292D32" stroke-width="1.5" stroke-linecap="round" stroke-linejoin="round"/>
<path d="M6.43876 12.5942C5.44001 13.26 5.44001 14.3508 6.43876 15.0167C7.57209 15.7746 9.42793 15.7746 10.5613 15.0167C11.56 14.3508 11.56 13.26 10.5613 12.5942C9.43501 11.8433 7.57209 11.8433 6.43876 12.5942Z" stroke="#292D32" stroke-width="1.5" stroke-linecap="round" stroke-linejoin="round"/>
</svg>
