<svg width="39" height="39" viewBox="0 0 39 39" fill="none" xmlns="http://www.w3.org/2000/svg">
<path fill-rule="evenodd" clip-rule="evenodd" d="M26.4062 6.09375V8.84L29.6562 11.44V6.09375H26.4062ZM32.0938 13.39V5.6875C32.0938 4.56625 31.1837 3.65625 30.0625 3.65625H26C24.8788 3.65625 23.9688 4.56625 23.9688 5.6875V6.89L23.3074 6.36025C22.2268 5.49553 20.884 5.02441 19.5 5.02441C18.116 5.02441 16.7732 5.49553 15.6926 6.36025L2.4895 16.9227C2.23695 17.1247 2.07495 17.4186 2.03914 17.74C2.00333 18.0613 2.09665 18.3838 2.29856 18.6363C2.50048 18.8889 2.79444 19.0509 3.1158 19.0867C3.43715 19.1225 3.75957 19.0292 4.01213 18.8273L5.28125 17.81V34.5312H3.25C2.92677 34.5312 2.61677 34.6597 2.38821 34.8882C2.15965 35.1168 2.03125 35.4268 2.03125 35.75C2.03125 36.0732 2.15965 36.3832 2.38821 36.6118C2.61677 36.8403 2.92677 36.9688 3.25 36.9688H35.75C36.0732 36.9688 36.3832 36.8403 36.6118 36.6118C36.8403 36.3832 36.9688 36.0732 36.9688 35.75C36.9688 35.4268 36.8403 35.1168 36.6118 34.8882C36.3832 34.6597 36.0732 34.5312 35.75 34.5312H33.7188V17.81L34.9895 18.8273C35.2425 19.0244 35.563 19.1139 35.8815 19.0763C36.2 19.0387 36.4908 18.8771 36.691 18.6265C36.8911 18.3759 36.9844 18.0565 36.9506 17.7376C36.9168 17.4186 36.7587 17.1259 36.5105 16.9227L32.0938 13.39ZM31.2812 15.86L21.7848 8.26313C21.1363 7.74413 20.3305 7.46136 19.5 7.46136C18.6695 7.46136 17.8637 7.74413 17.2152 8.26313L7.71875 15.86V34.5312H13.4062V27.5438C13.4062 26.4648 13.4063 25.5336 13.507 24.7877C13.6143 23.9882 13.8564 23.2229 14.4771 22.6021C15.0979 21.9814 15.8649 21.7393 16.6627 21.632C17.4086 21.5313 18.3398 21.5312 19.4204 21.5312H19.5796C20.6602 21.5312 21.5914 21.5313 22.3373 21.632C23.1368 21.7393 23.9021 21.9814 24.5229 22.6021C25.1436 23.2229 25.3857 23.9882 25.493 24.7877C25.5937 25.5336 25.5938 26.4648 25.5938 27.5454V34.5312H31.2812V15.86ZM23.1562 34.5312V27.625C23.1562 26.442 23.153 25.675 23.0782 25.1128C23.0067 24.5846 22.893 24.4189 22.7987 24.3263C22.7061 24.2336 22.5404 24.1183 22.0122 24.0468C21.4484 23.972 20.683 23.9688 19.5 23.9688C18.317 23.9688 17.55 23.972 16.9878 24.0468C16.4596 24.1183 16.2939 24.2336 16.2013 24.3263C16.1086 24.4189 15.9933 24.5846 15.9218 25.1128C15.847 25.6766 15.8438 26.442 15.8438 27.625V34.5312H23.1562ZM19.5 13.4062C19.2333 13.4062 18.9691 13.4588 18.7227 13.5609C18.4762 13.663 18.2523 13.8126 18.0637 14.0012C17.8751 14.1898 17.7255 14.4137 17.6234 14.6602C17.5213 14.9066 17.4688 15.1708 17.4688 15.4375C17.4688 15.7042 17.5213 15.9684 17.6234 16.2148C17.7255 16.4613 17.8751 16.6852 18.0637 16.8738C18.2523 17.0624 18.4762 17.212 18.7227 17.3141C18.9691 17.4162 19.2333 17.4688 19.5 17.4688C20.0387 17.4687 20.5554 17.2547 20.9363 16.8738C21.3172 16.4929 21.5312 15.9762 21.5312 15.4375C21.5312 14.8988 21.3172 14.3821 20.9363 14.0012C20.5554 13.6203 20.0387 13.4063 19.5 13.4062ZM15.0312 15.4375C15.0313 14.2523 15.5021 13.1157 16.3401 12.2776C17.1782 11.4396 18.3148 10.9687 19.5 10.9688C20.6852 10.9687 21.8218 11.4396 22.6599 12.2776C23.4979 13.1157 23.9688 14.2523 23.9688 15.4375C23.9688 16.6227 23.4979 17.7593 22.6599 18.5974C21.8218 19.4354 20.6852 19.9062 19.5 19.9062C18.3148 19.9062 17.1782 19.4354 16.3401 18.5974C15.5021 17.7593 15.0312 16.6227 15.0312 15.4375Z" fill="black"/>
</svg>
