<svg width="32" height="32" viewBox="0 0 32 32" fill="b7baff" xmlns="http://www.w3.org/2000/svg">
<path d="M3.5 31.75C2.5375 31.75 1.71325 31.407 1.02725 30.721C0.341253 30.035 -0.0011637 29.2113 2.97114e-06 28.25V3.75C2.97114e-06 2.7875 0.343003 1.96325 1.029 1.27725C1.715 0.591253 2.53867 0.248836 3.5 0.250003H28C28.9625 0.250003 29.7868 0.593003 30.4728 1.279C31.1588 1.965 31.5012 2.78867 31.5 3.75V28.25C31.5 29.2125 31.157 30.0368 30.471 30.7228C29.785 31.4088 28.9613 31.7512 28 31.75H3.5ZM3.5 28.25H28V3.75H3.5V28.25ZM5.25 24.75H26.25L19.6875 16L14.4375 23L10.5 17.75L5.25 24.75ZM9.625 12.5C10.3542 12.5 10.9743 12.2445 11.4853 11.7335C11.9963 11.2225 12.2512 10.603 12.25 9.875C12.25 9.14584 11.9945 8.52575 11.4835 8.01475C10.9725 7.50375 10.353 7.24884 9.625 7.25C8.89584 7.25 8.27575 7.5055 7.76475 8.0165C7.25375 8.5275 6.99884 9.147 7 9.875C7 10.6042 7.2555 11.2243 7.7665 11.7353C8.2775 12.2463 8.897 12.5012 9.625 12.5Z" fill="#B7BAFF"/>
</svg>
