<svg width="32" height="32" viewBox="0 0 32 32" fill="none" xmlns="http://www.w3.org/2000/svg">
<path d="M0 15.3573C0.00196075 13.3212 0.751793 11.3691 2.08496 9.92932C3.41813 8.48957 5.22573 7.67979 7.11111 7.67768H13.0074C13.4385 7.65048 20.9511 7.07931 28.1052 0.599624C28.4507 0.286283 28.8718 0.085922 29.319 0.022076C29.7663 -0.04177 30.2211 0.0335514 30.6301 0.239192C31.0391 0.444833 31.3853 0.772251 31.6279 1.18299C31.8706 1.59372 31.9997 2.07071 32 2.55793V28.1567C31.9999 28.644 31.8711 29.1212 31.6285 29.5322C31.386 29.9432 31.0398 30.2708 30.6308 30.4767C30.2217 30.6825 29.7668 30.758 29.3194 30.6942C28.872 30.6304 28.4508 30.43 28.1052 30.1166C22.5096 25.048 16.6978 23.5953 14.2222 23.1889V28.2639C14.2227 28.6857 14.1267 29.1011 13.9427 29.4732C13.7586 29.8453 13.4923 30.1624 13.1674 30.3966L11.5378 31.5693C11.2228 31.7963 10.862 31.9386 10.4857 31.9841C10.1093 32.0296 9.72835 31.9771 9.37467 31.8309C9.02098 31.6847 8.70487 31.4492 8.45281 31.1439C8.20075 30.8387 8.02008 30.4727 7.92593 30.0766L6.18222 22.9793C4.47151 22.7335 2.90166 21.8252 1.76453 20.4232C0.627398 19.0213 0.000360489 17.2211 0 15.3573ZM29.6296 28.1455V2.55793C23.2874 8.30324 16.7956 9.75757 14.2222 10.116V20.5922C16.7926 20.957 23.283 22.4081 29.6296 28.1455ZM10.2222 29.4254V29.443L11.8519 28.2703V23.0369H8.65185L10.2222 29.4254ZM7.11111 20.477H11.8519V10.2375H7.11111C5.85379 10.2375 4.64796 10.7769 3.7589 11.7371C2.86984 12.6972 2.37037 13.9995 2.37037 15.3573C2.37037 16.7151 2.86984 18.0174 3.7589 18.9775C4.64796 19.9376 5.85379 20.477 7.11111 20.477Z" fill="#5054FF"/>
</svg>
