<svg width="100%" height="100%" viewBox="0 0 18 18" fill="none" xmlns="http://www.w3.org/2000/svg">
<path d="M13.08 1.54877H4.92C4.42315 1.55015 3.94704 1.74814 3.59571 2.09947C3.24437 2.4508 3.04639 2.92691 3.045 3.42377V14.5763C3.04639 15.0731 3.24437 15.5492 3.59571 15.9006C3.94704 16.2519 4.42315 16.4499 4.92 16.4513H13.08C13.5773 16.4513 14.0542 16.2537 14.4058 15.9021C14.7575 15.5505 14.955 15.0735 14.955 14.5763V3.42377C14.955 2.92649 14.7575 2.44957 14.4058 2.09794C14.0542 1.74631 13.5773 1.54877 13.08 1.54877ZM14.205 14.5763C14.205 14.8746 14.0865 15.1608 13.8755 15.3718C13.6645 15.5827 13.3784 15.7013 13.08 15.7013H4.92C4.62163 15.7013 4.33548 15.5827 4.12451 15.3718C3.91353 15.1608 3.795 14.8746 3.795 14.5763V4.87877H14.205V14.5763Z" fill="#4886FF"/>
<path d="M5.66175 7.12952C5.56229 7.12952 5.46691 7.09001 5.39659 7.01968C5.32626 6.94936 5.28675 6.85397 5.28675 6.75452C5.28675 6.65506 5.32626 6.55968 5.39659 6.48935C5.46691 6.41903 5.56229 6.37952 5.66175 6.37952H12.3435C12.443 6.37952 12.5383 6.41903 12.6087 6.48935C12.679 6.55968 12.7185 6.65506 12.7185 6.75452C12.7185 6.85397 12.679 6.94936 12.6087 7.01968C12.5383 7.09001 12.443 7.12952 12.3435 7.12952H5.66175ZM5.66175 9.37952C5.56229 9.37952 5.46691 9.34001 5.39659 9.26968C5.32626 9.19936 5.28675 9.10397 5.28675 9.00452C5.28675 8.90506 5.32626 8.80968 5.39659 8.73935C5.46691 8.66903 5.56229 8.62952 5.66175 8.62952H10.5368C10.6362 8.62952 10.7316 8.66903 10.8019 8.73935C10.8722 8.80968 10.9118 8.90506 10.9118 9.00452C10.9118 9.10397 10.8722 9.19936 10.8019 9.26968C10.7316 9.34001 10.6362 9.37952 10.5368 9.37952H5.66175ZM5.6745 13.7805C5.57504 13.7805 5.47966 13.741 5.40934 13.6707C5.33901 13.6004 5.2995 13.505 5.2995 13.4055C5.2995 13.3061 5.33901 13.2107 5.40934 13.1404C5.47966 13.07 5.57504 13.0305 5.6745 13.0305H8.11275C8.21221 13.0305 8.30759 13.07 8.37792 13.1404C8.44824 13.2107 8.48775 13.3061 8.48775 13.4055C8.48775 13.505 8.44824 13.6004 8.37792 13.6707C8.30759 13.741 8.21221 13.7805 8.11275 13.7805H5.6745Z" fill="#4886FF"/>
</svg>
