<svg width="28" height="26" viewBox="0 0 34 32" fill="none" xmlns="http://www.w3.org/2000/svg">
<mask id="path-1-inside-1_1207_1905" fill="white">
<path fill-rule="evenodd" clip-rule="evenodd" d="M2 0C0.89543 0 0 0.895433 0 2V9.63636C0 10.7409 0.895429 11.6364 2 11.6364H9.91671V30C9.91671 31.1046 10.8121 32 11.9167 32H19.25C20.3546 32 21.25 31.1046 21.25 30V11.6364H29.1667C30.2712 11.6364 31.1667 10.7409 31.1667 9.63636V2C31.1667 0.895431 30.2712 0 29.1667 0H19.25H11.9167H2Z"/>
</mask>
<path fill-rule="evenodd" clip-rule="evenodd" d="M2 0C0.89543 0 0 0.895433 0 2V9.63636C0 10.7409 0.895429 11.6364 2 11.6364H9.91671V30C9.91671 31.1046 10.8121 32 11.9167 32H19.25C20.3546 32 21.25 31.1046 21.25 30V11.6364H29.1667C30.2712 11.6364 31.1667 10.7409 31.1667 9.63636V2C31.1667 0.895431 30.2712 0 29.1667 0H19.25H11.9167H2Z" fill="white"/>
<path d="M9.91671 11.6364H12.4167V9.13636H9.91671V11.6364ZM21.25 11.6364V9.13636H18.75V11.6364H21.25ZM2.5 2C2.5 2.27614 2.27615 2.5 2 2.5V-2.5C-0.485285 -2.5 -2.5 -0.485276 -2.5 2H2.5ZM2.5 9.63636V2H-2.5V9.63636H2.5ZM2 9.13636C2.27614 9.13636 2.5 9.36022 2.5 9.63636H-2.5C-2.5 12.1216 -0.485285 14.1364 2 14.1364V9.13636ZM9.91671 9.13636H2V14.1364H9.91671V9.13636ZM12.4167 30V11.6364H7.41671V30H12.4167ZM11.9167 29.5C12.1929 29.5 12.4167 29.7239 12.4167 30H7.41671C7.41671 32.4853 9.43143 34.5 11.9167 34.5V29.5ZM19.25 29.5H11.9167V34.5H19.25V29.5ZM18.75 30C18.75 29.7239 18.9739 29.5 19.25 29.5V34.5C21.7353 34.5 23.75 32.4853 23.75 30H18.75ZM18.75 11.6364V30H23.75V11.6364H18.75ZM29.1667 9.13636H21.25V14.1364H29.1667V9.13636ZM28.6667 9.63636C28.6667 9.36022 28.8905 9.13636 29.1667 9.13636V14.1364C31.652 14.1364 33.6667 12.1216 33.6667 9.63636H28.6667ZM28.6667 2V9.63636H33.6667V2H28.6667ZM29.1667 2.5C28.8905 2.5 28.6667 2.27614 28.6667 2H33.6667C33.6667 -0.485279 31.652 -2.5 29.1667 -2.5V2.5ZM19.25 2.5H29.1667V-2.5H19.25V2.5ZM11.9167 2.5H19.25V-2.5H11.9167V2.5ZM2 2.5H11.9167V-2.5H2V2.5Z" fill="black" mask="url(#path-1-inside-1_1207_1905)"/>
<line x1="20.5" y1="21" x2="20.5" y2="28.2727" stroke="white" stroke-width="3"/>
<line x1="26.6547" y1="17.4546" x2="26.6547" y2="32" stroke="black" stroke-width="2"/>
<line x1="34" y1="24.2383" x2="19.8333" y2="24.2383" stroke="black" stroke-width="2"/>
</svg>
