<svg width="34" height="32" viewBox="0 0 34 32" fill="none" xmlns="http://www.w3.org/2000/svg">
<mask id="path-1-inside-1_1207_1905" fill="white">
<path fill-rule="evenodd" clip-rule="evenodd" d="M2 0C0.89543 0 0 0.895433 0 2V9.63636C0 10.7409 0.895429 11.6364 2 11.6364H9.91671V30C9.91671 31.1046 10.8121 32 11.9167 32H19.25C20.3546 32 21.25 31.1046 21.25 30V11.6364H29.1667C30.2712 11.6364 31.1667 10.7409 31.1667 9.63636V2C31.1667 0.895431 30.2712 0 29.1667 0H19.25H11.9167H2Z"/>
</mask>
<path fill-rule="evenodd" clip-rule="evenodd" d="M2 0C0.89543 0 0 0.895433 0 2V9.63636C0 10.7409 0.895429 11.6364 2 11.6364H9.91671V30C9.91671 31.1046 10.8121 32 11.9167 32H19.25C20.3546 32 21.25 31.1046 21.25 30V11.6364H29.1667C30.2712 11.6364 31.1667 10.7409 31.1667 9.63636V2C31.1667 0.895431 30.2712 0 29.1667 0H19.25H11.9167H2Z" fill="white"/>
<path d="M9.91671 11.6364H11.9167V9.63636H9.91671V11.6364ZM21.25 11.6364V9.63636H19.25V11.6364H21.25ZM2 2L2 2V-2C-0.209142 -2 -2 -0.209134 -2 2H2ZM2 9.63636V2H-2V9.63636H2ZM2 9.63636H2H-2C-2 11.8455 -0.209143 13.6364 2 13.6364V9.63636ZM9.91671 9.63636H2V13.6364H9.91671V9.63636ZM11.9167 30V11.6364H7.91671V30H11.9167ZM11.9167 30H11.9167H7.91671C7.91671 32.2091 9.70757 34 11.9167 34V30ZM19.25 30H11.9167V34H19.25V30ZM19.25 30V34C21.4592 34 23.25 32.2091 23.25 30H19.25ZM19.25 11.6364V30H23.25V11.6364H19.25ZM29.1667 9.63636H21.25V13.6364H29.1667V9.63636ZM29.1667 9.63636V9.63636V13.6364C31.3758 13.6364 33.1667 11.8455 33.1667 9.63636H29.1667ZM29.1667 2V9.63636H33.1667V2H29.1667ZM29.1667 2H29.1667H33.1667C33.1667 -0.209137 31.3758 -2 29.1667 -2V2ZM19.25 2H29.1667V-2H19.25V2ZM11.9167 2H19.25V-2H11.9167V2ZM2 2H11.9167V-2H2V2Z" fill="black" mask="url(#path-1-inside-1_1207_1905)"/>
<line x1="20.5" y1="21" x2="20.5" y2="28.2727" stroke="white" stroke-width="3"/>
<line x1="26.6547" y1="17.4546" x2="26.6547" y2="32" stroke="black" stroke-width="1.5"/>
<line x1="34" y1="24.2383" x2="19.8333" y2="24.2383" stroke="black" stroke-width="1.5"/>
</svg>
